# xmcd CD database file
#
# Track frame offsets:
#	150
#	24160
#	41520
#	79902
#	94507
#	102735
#	121267
#	141562
#	165222
#	210905
#	231687
#	252282
#	287015
#	308207
#	325392
#
# Disc length: 4359 seconds
#
# Revision: 0
# Processed by: cddbd v1.4PL0 Copyright (c) Steve Scherf et al.
# Submitted via: CDex 1.51
#
DISCID=cd11050f
DTITLE=George Gruntz - Renaissance Man
DYEAR=2002
DGENRE=Jazz
TTITLE0=Chareg Gheda Bezzine and Ya Achiquine
TTITLE1=Naima
TTITLE2=Source Andalouse
TTITLE3=Guinevere's Love Song
TTITLE4=Capricci Cavallereschi
TTITLE5=Untitled Piece in Eight Layers
TTITLE6=Raven-a-Ning
TTITLE7=Novgorod Bells and Mexico
TTITLE8=Monk's Schein-Sonate and Escape Attempt
TTITLE9=Music For Night Children
TTITLE10=Autumn Again
TTITLE11=Vaterfreuden
TTITLE12=Isam's Kamelion
TTITLE13=A Night in Tunesia
TTITLE14=Perhaps
EXTD=YEAR: 2002
EXTT0=
EXTT1=
EXTT2=
EXTT3=
EXTT4=
EXTT5=
EXTT6=
EXTT7=
EXTT8=
EXTT9=
EXTT10=
EXTT11=
EXTT12=
EXTT13=
EXTT14=
PLAYORDER=
